<?xml version="1.0" standalone="no"?>
<!DOCTYPE svg PUBLIC "-//W3C//DTD SVG 20010904//EN"
 "http://www.w3.org/TR/2001/REC-SVG-20010904/DTD/svg10.dtd">
<svg version="1.0" xmlns="http://www.w3.org/2000/svg"
 width="250.000000pt" height="250.000000pt" viewBox="0 0 250.000000 250.000000"
 preserveAspectRatio="xMidYMid meet">
<metadata>
Created by potrace 1.14, written by Peter Selinger 2001-2017
</metadata>
<g transform="translate(0.000000,250.000000) scale(0.100000,-0.100000)"
fill="#000000" stroke="none">
<path d="M1075 2493 c-196 -38 -341 -137 -507 -343 -37 -48 -215 -315 -256
-385 -185 -322 -233 -588 -151 -840 52 -159 158 -308 314 -441 58 -50 200
-154 210 -154 2 0 44 -26 92 -59 267 -177 469 -260 648 -266 126 -4 203 12
314 66 252 123 451 373 560 706 35 106 45 145 67 263 10 56 13 310 4 370 -16
106 -22 132 -45 210 -59 198 -156 362 -300 505 -108 109 -129 127 -220 186
-123 79 -275 143 -405 170 -54 11 -286 20 -325 12z"/>
</g>
</svg>
